# xmcd
#
# Track frame offsets:
#	150
#	16600
#	44977
#
# Disc length: 1369 seconds
#
# Revision: 1
# Processed by: cddbd v1.4PL0 Copyright (c) Steve Scherf et al.
# Submitted via: audiograbber 1.81.01
#
DISCID=1e055703
DTITLE=Sherrie' Austin - Never Been Kissed (Single)
DYEAR=1999
DGENRE=Country
TTITLE0=Never Been Kissed
TTITLE1=Words
TTITLE2=Data Track
EXTD=
EXTT0=
EXTT1=
EXTT2=
PLAYORDER=
